<?xml version="1.0" encoding="utf-8"?>
<!-- Generator: Adobe Illustrator 22.0.0, SVG Export Plug-In . SVG Version: 6.00 Build 0)  -->
<svg version="1.1" id="Layer_1" xmlns="http://www.w3.org/2000/svg" xmlns:xlink="http://www.w3.org/1999/xlink" x="0px" y="0px"
	 viewBox="0 0 202.8 44" style="enable-background:new 0 0 202.8 44;" xml:space="preserve">
<style type="text/css">
	.st0{fill:#FFD700;}
	.st1{fill:#CA8600;}
</style>
<path class="st0" d="M128,35.4l-13.5,6.8l2.6-14.5l-10.9-10.2l15-2.1L128,2.2l6.8,13.2l15,2.1l-10.9,10.2l2.6,14.5"/>
<path class="st1" d="M128,4.4l5.6,11l0.5,0.9l1,0.1l12.5,1.7l-9,8.4l-0.8,0.7l0.2,1.1l2.1,12l-11.3-5.7l-0.9-0.5l-0.9,0.5l-11.3,5.7
	l2.1-12l0.2-1.1l-0.8-0.7l-9-8.4l12.4-1.7l1-0.1l0.5-0.9L128,4.4 M128,0l-7.4,14.5L104,16.8l12,11.3L113.2,44l14.8-7.5l14.8,7.5
	L140,28.1l12-11.3l-16.6-2.3C135.4,14.5,128,0,128,0z"/>
<path class="st0" d="M180,35.4l-13.5,6.8l2.6-14.5l-10.9-10.2l15-2.1L180,2.2l6.8,13.2l15,2.1l-10.9,10.2l2.6,14.5"/>
<path class="st1" d="M180,4.4l5.6,11l0.5,0.9l1,0.1l12.5,1.7l-9,8.4l-0.8,0.7l0.2,1.1l2.1,12l-11.3-5.7l-0.9-0.5l-0.9,0.5l-11.3,5.7
	l2.1-12l0.2-1.1l-0.8-0.7l-9-8.4l12.4-1.7l1-0.1l0.5-0.9L180,4.4 M180,0l-7.4,14.5L156,16.8l12,11.3L165.2,44l14.8-7.5l14.8,7.5
	L192,28.1l12-11.3l-16.6-2.3C187.4,14.5,180,0,180,0z"/>
<g>
	<path class="st0" d="M24,35.4l-13.5,6.8l2.6-14.5L2.2,17.5l15-2.1L24,2.2l6.8,13.2l15,2.1L34.9,27.7l2.6,14.5"/>
	<path class="st1" d="M24,4.4l5.6,11l0.5,0.9l1,0.1l12.5,1.7l-9,8.4l-0.8,0.7l0.2,1.1l2.1,12l-11.3-5.7L24,34.2l-0.9,0.5l-11.3,5.7
		l2.1-12l0.2-1.1l-0.8-0.7l-9-8.4l12.4-1.7l1-0.1l0.5-0.9L24,4.4 M24,0l-7.4,14.5L0,16.8l12,11.3L9.2,44L24,36.5L38.8,44L36,28.1
		l12-11.3l-16.6-2.3L24,0z"/>
</g>
<g>
	<path class="st0" d="M76,35.4l-13.5,6.8l2.6-14.5L54.2,17.5l15-2.1L76,2.2l6.8,13.2l15,2.1L86.9,27.7l2.6,14.5"/>
	<path class="st1" d="M76,4.4l5.6,11l0.5,0.9l1,0.1l12.5,1.7l-9,8.4l-0.8,0.7l0.2,1.1l2.1,12l-11.3-5.7L76,34.2l-0.9,0.5l-11.3,5.7
		l2.1-12l0.2-1.1l-0.8-0.7l-9-8.4l12.4-1.7l1-0.1l0.5-0.9L76,4.4 M76,0l-7.4,14.5L52,16.8l12,11.3L61.2,44L76,36.5L90.8,44L88,28.1
		l12-11.3l-16.6-2.3L76,0z"/>
</g>
</svg>
