<?xml version="1.0" encoding="iso-8859-1"?>
<!-- Generator: Adobe Illustrator 19.0.0, SVG Export Plug-In . SVG Version: 6.00 Build 0)  -->
<svg version="1.1" id="Layer_1" xmlns="http://www.w3.org/2000/svg" xmlns:xlink="http://www.w3.org/1999/xlink" x="0px" y="0px"
	 viewBox="0 0 297 297" style="enable-background:new 0 0 297 297;" xml:space="preserve">
<g>
	<g>
		<g>
			<g>
				<circle style="fill:#C0392B;" cx="148.5" cy="148.5" r="148.5"/>
			</g>
		</g>
	</g>
	<path style="fill:#931515;" d="M296.81,140.94l-58.366-58.076c-37.993,29.183-86.192,45.873-109.944,90.636c-3,6-1,14-3,20
		c-5.25,15.749-7.576,31.413-9.763,47.643l53.749,54.374C241.561,285.32,297,223.39,297,148.5
		C297,145.965,296.936,143.445,296.81,140.94z"/>
	<g>
		<path style="fill:#ECF0F1;" d="M170.971,182.446c-22.645,10.051-31.514,27.726-43.477,54.328
			c-2.762,6.142-11.293,7.085-15.056,1.5c-2.09-3.102-3.586-7.541-3.586-13.895c0-21.087,13.179-45.469,13.179-45.469H69.584
			c-11.416,0-19.703-10.86-16.689-21.871l17.765-64.9c2.058-7.52,8.892-12.734,16.689-12.734h76.342
			c4.715,0,9.409,0.629,13.958,1.869l22.141,6.038v69.421l-8.328,10.177C185.958,173.637,178.915,178.92,170.971,182.446z"/>
	</g>
	<g>
		<path style="fill:#EDB7AB;" d="M227.784,77.265h-21.323c-7.15,0-12.946,5.796-12.946,12.946v77.675
			c0,7.15,5.796,12.946,12.946,12.946h21.323c7.15,0,12.946-5.796,12.946-12.946V90.211
			C240.73,83.061,234.934,77.265,227.784,77.265z"/>
	</g>
</g>
<g>
</g>
<g>
</g>
<g>
</g>
<g>
</g>
<g>
</g>
<g>
</g>
<g>
</g>
<g>
</g>
<g>
</g>
<g>
</g>
<g>
</g>
<g>
</g>
<g>
</g>
<g>
</g>
<g>
</g>
</svg>
