<?xml version="1.0" encoding="UTF-8"?>
<svg width="297px" height="297px" viewBox="0 0 297 297" version="1.1" xmlns="http://www.w3.org/2000/svg" xmlns:xlink="http://www.w3.org/1999/xlink">
    <!-- Generator: Sketch 43.2 (39069) - http://www.bohemiancoding.com/sketch -->
    <title>sign</title>
    <desc>Created with Sketch.</desc>
    <defs></defs>
    <g id="Page-1" stroke="none" stroke-width="1" fill="none" fill-rule="evenodd">
        <g id="sign" transform="translate(148.500000, 148.500000) rotate(180.000000) translate(-148.500000, -148.500000) " fill-rule="nonzero">
            <circle id="Oval" fill="#4EC02B" cx="148.5" cy="148.5" r="148.5"></circle>
            <path d="M296.81,140.94 L238.444,82.864 C200.451,112.047 152.252,128.737 128.5,173.5 C125.5,179.5 127.5,187.5 125.5,193.5 C120.25,209.249 117.924,224.913 115.737,241.143 L169.486,295.517 C241.561,285.32 297,223.39 297,148.5 C297,145.965 296.936,143.445 296.81,140.94 Z" id="Shape" fill="#369315"></path>
            <path d="M170.971,182.446 C148.326,192.497 139.457,210.172 127.494,236.774 C124.732,242.916 116.201,243.859 112.438,238.274 C110.348,235.172 108.852,230.733 108.852,224.379 C108.852,203.292 122.031,178.91 122.031,178.91 L69.584,178.91 C58.168,178.91 49.881,168.05 52.895,157.039 L70.66,92.139 C72.718,84.619 79.552,79.405 87.349,79.405 L163.691,79.405 C168.406,79.405 173.1,80.034 177.649,81.274 L199.79,87.312 L199.79,156.733 L191.462,166.91 C185.958,173.637 178.915,178.92 170.971,182.446 Z" id="Shape" fill="#ECF0F1"></path>
            <path d="M227.784,77.265 L206.461,77.265 C199.311,77.265 193.515,83.061 193.515,90.211 L193.515,167.886 C193.515,175.036 199.311,180.832 206.461,180.832 L227.784,180.832 C234.934,180.832 240.73,175.036 240.73,167.886 L240.73,90.211 C240.73,83.061 234.934,77.265 227.784,77.265 Z" id="Shape" fill="#D2EDAB"></path>
        </g>
    </g>
</svg>